PathFileType	4	(X/Y/Z)	Run_400 05
DataRate	CameraRate	NumFrames	NumMarkers	Units	OrigDataRate	OrigDataStartFrame	OrigNumFrames
120	120	4	42	mm	120	416	128
Frame#	Time	LASI			RASI			LPSI			RPSI			RTH1			RTH2			RTH3			LTH1			LTH2			LTH3			RTB1			RTB2			RTB3			LTB1			LTB2			LTB3			RCAL			RTOE			RMT5			LCAL			LTOE			LMT5			LACR			RACR			CLAV			C7			RUA1			RUA2			RUA3			RLEL			RMEL			LUA1			LUA2			LUA3			LLEL			LMEL			RFAsuperior			RFAradius			RFAulna			LFAsuperior			LFAradius			LFAulna		
		X1	Y1	Z1	X2	Y2	Z2	X3	Y3	Z3	X4	Y4	Z4	X5	Y5	Z5	X6	Y6	Z6	X7	Y7	Z7	X8	Y8	Z8	X9	Y9	Z9	X10	Y10	Z10	X11	Y11	Z11	X12	Y12	Z12	X13	Y13	Z13	X14	Y14	Z14	X15	Y15	Z15	X16	Y16	Z16	X17	Y17	Z17	X18	Y18	Z18	X19	Y19	Z19	X20	Y20	Z20	X21	Y21	Z21	X22	Y22	Z22	X23	Y23	Z23	X24	Y24	Z24	X25	Y25	Z25	X26	Y26	Z26	X27	Y27	Z27	X28	Y28	Z28	X29	Y29	Z29	X30	Y30	Z30	X31	Y31	Z31	X32	Y32	Z32	X33	Y33	Z33	X34	Y34	Z34	X35	Y35	Z35	X36	Y36	Z36	X37	Y37	Z37	X38	Y38	Z38	X39	Y39	Z39	X40	Y40	Z40	X41	Y41	Z41	X42	Y42	Z42	

416	  3.466667	958.285176	1031.833801	-429.190863	977.667872	1010.236942	-172.762953	787.469490	1064.161655	-319.738912	794.571448	1049.716040	-240.774235	956.034008	839.566964	-128.087338	1056.693482	764.626258	-138.432511	1031.300891	639.621066	-158.397842	909.879577	819.804094	-475.398467	986.209056	703.719200	-460.985366	941.879541	585.802139	-425.964300	1009.544103	470.767973	-243.675707	944.457242	483.828040	-172.255855	850.772716	468.821562	-237.016800	966.541953	360.602076	-336.403522	897.435180	289.915744	-378.263670	852.562683	196.942402	-297.899827	677.888213	577.640630	-237.884758	672.737967	343.513197	-243.708498	646.904282	411.327435	-154.833294	678.612019	112.717133	-267.785793	909.365571	 69.375709	-260.993894	830.731851	 52.344483	-348.282365	1012.311582	1467.314035	-482.607873	1025.819823	1490.228334	-133.399988	1066.278949	1424.348139	-272.622191	936.654759	1522.812338	-304.272865	978.480194	1391.404492	-53.843843	945.212009	1305.924956	-59.384259	876.248306	1326.189543	-25.880949	807.490500	1209.628452	 17.542190	775.950434	1207.624579	-60.222298	991.748013	1371.287800	-553.509878	1001.481299	1299.836420	-546.385863	904.717870	1289.048608	-562.273497	912.644462	1133.515668	-626.112387	856.319401	1118.307721	-560.384838	895.350330	1141.733949	 11.279182	1012.490503	1041.138636	-83.970016	990.590978	1012.557756	-20.628820	1005.411869	1127.113528	-588.535281	1127.096572	1138.088438	-459.409346	1135.784049	1071.278887	-486.620531	
417	  3.475000	957.643614	1031.331180	-429.226847	978.131833	1012.545784	-173.498849	787.280499	1065.587241	-319.541033	794.544900	1051.760646	-240.294952	960.330414	844.224317	-128.000972	1064.907117	774.463470	-138.710430	1045.465935	648.524793	-158.100286	900.926606	819.000982	-475.052449	973.146782	700.782721	-461.198427	923.795162	584.015127	-426.691683	1032.800781	475.877810	-245.271907	967.203148	484.308485	-172.717447	876.091889	462.506179	-238.012561	940.242553	357.152018	-336.967880	868.768910	288.572379	-378.367255	822.256611	196.531317	-297.949681	693.605920	558.994298	-235.727513	707.244920	325.423909	-244.533530	676.404580	389.812856	-154.637559	646.304915	115.852895	-267.619114	876.097245	 68.803922	-260.968139	797.167530	 52.582182	-348.047659	1015.910873	1471.152907	-481.669658	1021.885054	1491.377429	-132.183205	1065.568305	1426.363473	-270.526324	936.285747	1524.418415	-304.751719	970.346643	1395.314904	-52.432309	934.816533	1311.034042	-56.665256	864.580841	1333.494367	-27.728630	792.993431	1218.776228	 16.302320	760.939739	1216.977641	-61.401009	997.823778	1375.436206	-553.213006	1007.370283	1304.090442	-545.657745	910.914952	1291.063237	-563.309967	922.578649	1134.882707	-624.704394	866.711903	1118.739277	-558.552529	878.077413	1147.974754	 12.059660	996.690343	1048.028352	-81.313518	971.992552	1018.118834	-19.927769	1014.894657	1132.223812	-586.747417	1134.954731	1149.442559	-455.408577	1147.188391	1082.936179	-482.007155	
418	  3.483333	957.382821	1031.178045	-429.767308	978.909829	1015.310329	-173.986090	787.613025	1067.203989	-319.185659	794.862975	1054.262889	-239.602330	964.825253	849.606473	-127.741349	1072.256544	784.508697	-138.825406	1058.635996	658.172797	-157.794757	892.360507	818.892628	-474.361503	960.073845	698.059575	-461.131417	904.975318	583.042420	-426.677241	1055.071310	481.095152	-247.022213	989.067572	484.812904	-173.432334	900.497915	456.340626	-239.145156	913.297090	354.752461	-337.305994	839.641855	288.169446	-378.254757	791.704622	197.010142	-297.957750	709.605212	538.256614	-234.397925	743.661801	306.992010	-246.022920	707.518112	367.346022	-155.170468	614.142615	120.008100	-267.721338	842.784302	 68.329156	-260.945536	763.624628	 52.967064	-347.713862	1019.533215	1475.943207	-480.056651	1017.480794	1493.655696	-130.759082	1064.873653	1429.620471	-268.165702	935.675758	1526.608275	-304.978479	961.834049	1400.757534	-50.928553	924.266683	1317.424956	-54.807607	853.347111	1342.254839	-29.162498	778.779669	1229.184286	 14.675249	746.093108	1227.913012	-63.030155	1004.057654	1380.927848	-552.437511	1013.386906	1309.201078	-544.670023	917.785107	1295.219849	-563.851169	931.596102	1137.752748	-622.990919	876.042425	1121.005614	-556.381304	861.891934	1156.633717	 11.796549	981.485280	1057.230867	-79.770337	954.520236	1026.364463	-19.981629	1023.581879	1139.240829	-583.987151	1141.314157	1162.380394	-451.285004	1157.013038	1096.431654	-477.373199	
419	  3.491667	957.374600	1031.576510	-431.040252	980.155408	1018.586140	-174.440098	788.441841	1069.174742	-318.815140	795.662889	1057.269960	-238.881249	969.482945	855.563453	-127.220606	1078.893872	794.583817	-138.839138	1070.790021	668.388201	-157.376883	884.720647	819.657365	-473.545829	946.957535	695.934056	-460.674174	885.615195	583.223804	-425.896356	1076.305499	486.402851	-248.636753	1010.174762	485.017699	-174.285445	924.080582	449.977403	-240.334118	885.967183	353.728185	-337.732301	810.456631	289.063621	-378.007742	761.095101	198.695069	-297.996275	726.514650	515.639300	-233.923787	781.764311	288.650210	-248.153532	740.289018	344.389065	-156.432493	582.381602	125.545718	-268.219819	809.535106	 67.965313	-261.043835	730.223680	 53.580668	-347.349497	1022.910152	1481.458195	-477.987945	1012.530825	1497.100286	-129.243172	1064.157022	1434.066216	-265.545517	934.892160	1529.385003	-305.089621	953.347122	1407.508845	-49.503357	914.166920	1324.870533	-53.814877	843.050438	1352.119295	-30.101943	765.063886	1240.654421	 12.419798	733.000974	1240.068572	-65.644715	1009.873801	1387.193187	-551.161123	1019.347132	1314.951765	-543.361723	924.987786	1300.545455	-563.511154	939.921888	1141.870325	-621.068125	884.403568	1124.791684	-554.204971	847.173004	1167.516533	 10.560143	967.086495	1067.746839	-78.975293	938.319162	1036.443427	-20.291238	1031.559684	1147.499530	-580.603677	1146.315251	1176.350257	-447.025548	1165.267908	1111.140312	-472.651295	
